<svg width="103" height="17" viewBox="0 0 103 17" fill="none" xmlns="http://www.w3.org/2000/svg">
<path d="M0.816 10.832C2.17067 9.744 3.232 8.85333 4 8.16C4.768 7.456 5.41333 6.72533 5.936 5.968C6.46933 5.2 6.736 4.448 6.736 3.712C6.736 3.01867 6.56533 2.47467 6.224 2.08C5.89333 1.67467 5.35467 1.472 4.608 1.472C3.88267 1.472 3.31733 1.70133 2.912 2.16C2.51733 2.608 2.304 3.21067 2.272 3.968H0.864C0.906667 2.77333 1.26933 1.85067 1.952 1.2C2.63467 0.549333 3.51467 0.223999 4.592 0.223999C5.69067 0.223999 6.56 0.527999 7.2 1.136C7.85067 1.744 8.176 2.58133 8.176 3.648C8.176 4.53333 7.90933 5.39733 7.376 6.24C6.85333 7.072 6.256 7.808 5.584 8.448C4.912 9.07733 4.05333 9.81333 3.008 10.656H8.512V11.872H0.816V10.832ZM10.1951 6.096C10.1951 4.26133 10.4938 2.832 11.0911 1.808C11.6885 0.773333 12.7338 0.256 14.2271 0.256C15.7098 0.256 16.7498 0.773333 17.3471 1.808C17.9445 2.832 18.2431 4.26133 18.2431 6.096C18.2431 7.96267 17.9445 9.41333 17.3471 10.448C16.7498 11.4827 15.7098 12 14.2271 12C12.7338 12 11.6885 11.4827 11.0911 10.448C10.4938 9.41333 10.1951 7.96267 10.1951 6.096ZM16.8031 6.096C16.8031 5.168 16.7391 4.384 16.6111 3.744C16.4938 3.09333 16.2431 2.57067 15.8591 2.176C15.4858 1.78133 14.9418 1.584 14.2271 1.584C13.5018 1.584 12.9471 1.78133 12.5631 2.176C12.1898 2.57067 11.9391 3.09333 11.8111 3.744C11.6938 4.384 11.6351 5.168 11.6351 6.096C11.6351 7.056 11.6938 7.86133 11.8111 8.512C11.9391 9.16267 12.1898 9.68533 12.5631 10.08C12.9471 10.4747 13.5018 10.672 14.2271 10.672C14.9418 10.672 15.4858 10.4747 15.8591 10.08C16.2431 9.68533 16.4938 9.16267 16.6111 8.512C16.7391 7.86133 16.8031 7.056 16.8031 6.096ZM20.066 10.832C21.4207 9.744 22.482 8.85333 23.25 8.16C24.018 7.456 24.6633 6.72533 25.186 5.968C25.7193 5.2 25.986 4.448 25.986 3.712C25.986 3.01867 25.8153 2.47467 25.474 2.08C25.1433 1.67467 24.6047 1.472 23.858 1.472C23.1327 1.472 22.5673 1.70133 22.162 2.16C21.7673 2.608 21.554 3.21067 21.522 3.968H20.114C20.1567 2.77333 20.5193 1.85067 21.202 1.2C21.8847 0.549333 22.7647 0.223999 23.842 0.223999C24.9407 0.223999 25.81 0.527999 26.45 1.136C27.1007 1.744 27.426 2.58133 27.426 3.648C27.426 4.53333 27.1593 5.39733 26.626 6.24C26.1033 7.072 25.506 7.808 24.834 8.448C24.162 9.07733 23.3033 9.81333 22.258 10.656H27.762V11.872H20.066V10.832ZM29.4131 3.344C29.4878 2.36267 29.8665 1.59467 30.5491 1.04C31.2318 0.485332 32.1171 0.207999 33.2051 0.207999C33.9305 0.207999 34.5545 0.341333 35.0771 0.608C35.6105 0.864 36.0105 1.216 36.2771 1.664C36.5545 2.112 36.6931 2.61867 36.6931 3.184C36.6931 3.84533 36.5011 4.416 36.1171 4.896C35.7438 5.376 35.2531 5.68533 34.6451 5.824V5.904C35.3385 6.07467 35.8878 6.41067 36.2931 6.912C36.6985 7.41333 36.9011 8.06933 36.9011 8.88C36.9011 9.488 36.7625 10.0373 36.4851 10.528C36.2078 11.008 35.7918 11.3867 35.2371 11.664C34.6825 11.9413 34.0158 12.08 33.2371 12.08C32.1065 12.08 31.1785 11.7867 30.4531 11.2C29.7278 10.6027 29.3225 9.76 29.2371 8.672H30.6451C30.7198 9.312 30.9811 9.83467 31.4291 10.24C31.8771 10.6453 32.4745 10.848 33.2211 10.848C33.9678 10.848 34.5331 10.656 34.9171 10.272C35.3118 9.87733 35.5091 9.37067 35.5091 8.752C35.5091 7.952 35.2425 7.376 34.7091 7.024C34.1758 6.672 33.3705 6.496 32.2931 6.496H31.9251V5.28H32.3091C33.2905 5.26933 34.0318 5.10933 34.5331 4.8C35.0345 4.48 35.2851 3.98933 35.2851 3.328C35.2851 2.76267 35.0985 2.30933 34.7251 1.968C34.3625 1.62667 33.8398 1.456 33.1571 1.456C32.4958 1.456 31.9625 1.62667 31.5571 1.968C31.1518 2.30933 30.9118 2.768 30.8371 3.344H29.4131ZM48.4926 0.735999C49.57 0.735999 50.53 0.981332 51.3726 1.472C52.2153 1.952 52.866 2.624 53.3246 3.488C53.794 4.34133 54.0286 5.31733 54.0286 6.416C54.0286 7.51467 53.794 8.496 53.3246 9.36C52.866 10.2133 52.2153 10.8853 51.3726 11.376C50.53 11.856 49.57 12.096 48.4926 12.096C47.4046 12.096 46.4393 11.856 45.5966 11.376C44.754 10.8853 44.098 10.2133 43.6286 9.36C43.1593 8.496 42.9246 7.51467 42.9246 6.416C42.9246 5.31733 43.1593 4.34133 43.6286 3.488C44.098 2.624 44.754 1.952 45.5966 1.472C46.4393 0.981332 47.4046 0.735999 48.4926 0.735999ZM48.4926 1.376C47.5006 1.376 46.6366 1.58933 45.9006 2.016C45.1646 2.432 44.5993 3.01867 44.2046 3.776C43.81 4.53333 43.6126 5.41333 43.6126 6.416C43.6126 7.408 43.81 8.288 44.2046 9.056C44.5993 9.81333 45.1646 10.4053 45.9006 10.832C46.6366 11.2587 47.5006 11.472 48.4926 11.472C49.474 11.472 50.3273 11.2587 51.0526 10.832C51.7886 10.4053 52.354 9.81333 52.7486 9.056C53.1433 8.288 53.3406 7.408 53.3406 6.416C53.3406 5.41333 53.1433 4.53333 52.7486 3.776C52.354 3.01867 51.7886 2.432 51.0526 2.016C50.3273 1.58933 49.474 1.376 48.4926 1.376ZM48.4606 2.704C47.8206 2.704 47.234 2.85333 46.7006 3.152C46.178 3.45067 45.762 3.88267 45.4526 4.448C45.1433 5.00267 44.9886 5.65333 44.9886 6.4C44.9886 7.14667 45.1433 7.80267 45.4526 8.368C45.762 8.92267 46.178 9.35467 46.7006 9.664C47.234 9.96267 47.8206 10.112 48.4606 10.112C49.2606 10.112 49.954 9.89867 50.5406 9.472C51.1273 9.03467 51.5273 8.45333 51.7406 7.728H50.3966C50.0766 8.61333 49.4313 9.056 48.4606 9.056C47.8206 9.056 47.298 8.82667 46.8926 8.368C46.4873 7.90933 46.2846 7.25867 46.2846 6.416C46.2846 5.56267 46.4873 4.90667 46.8926 4.448C47.298 3.98933 47.8206 3.76 48.4606 3.76C48.93 3.76 49.3353 3.87733 49.6766 4.112C50.018 4.336 50.258 4.66133 50.3966 5.088H51.7406C51.538 4.33067 51.1433 3.744 50.5566 3.328C49.97 2.912 49.2713 2.704 48.4606 2.704ZM63.8461 12.112C63.1101 12.112 62.4488 11.984 61.8621 11.728C61.2861 11.4613 60.8328 11.0987 60.5021 10.64C60.1715 10.1707 60.0008 9.632 59.9901 9.024H61.5421C61.5955 9.54667 61.8088 9.98933 62.1821 10.352C62.5661 10.704 63.1208 10.88 63.8461 10.88C64.5395 10.88 65.0835 10.7093 65.4781 10.368C65.8835 10.016 66.0861 9.568 66.0861 9.024C66.0861 8.59733 65.9688 8.25067 65.7341 7.984C65.4995 7.71733 65.2061 7.51467 64.8541 7.376C64.5021 7.23733 64.0275 7.088 63.4301 6.928C62.6941 6.736 62.1021 6.544 61.6541 6.352C61.2168 6.16 60.8381 5.86133 60.5181 5.456C60.2088 5.04 60.0541 4.48533 60.0541 3.792C60.0541 3.184 60.2088 2.64533 60.5181 2.176C60.8275 1.70667 61.2595 1.344 61.8141 1.088C62.3795 0.831999 63.0248 0.704 63.7501 0.704C64.7955 0.704 65.6488 0.965333 66.3101 1.488C66.9821 2.01067 67.3608 2.704 67.4461 3.568H65.8461C65.7928 3.14133 65.5688 2.768 65.1741 2.448C64.7795 2.11733 64.2568 1.952 63.6061 1.952C62.9981 1.952 62.5021 2.112 62.1181 2.432C61.7341 2.74133 61.5421 3.17867 61.5421 3.744C61.5421 4.14933 61.6541 4.48 61.8781 4.736C62.1128 4.992 62.3955 5.18933 62.7261 5.328C63.0675 5.456 63.5421 5.60533 64.1501 5.776C64.8861 5.97867 65.4781 6.18133 65.9261 6.384C66.3741 6.576 66.7581 6.88 67.0781 7.296C67.3981 7.70133 67.5581 8.256 67.5581 8.96C67.5581 9.504 67.4141 10.016 67.1261 10.496C66.8381 10.976 66.4115 11.3653 65.8461 11.664C65.2808 11.9627 64.6141 12.112 63.8461 12.112ZM71.1568 4.848C71.4448 4.34667 71.8714 3.93067 72.4368 3.6C73.0128 3.25867 73.6794 3.088 74.4368 3.088C75.2154 3.088 75.9194 3.27467 76.5487 3.648C77.1887 4.02133 77.6901 4.54933 78.0528 5.232C78.4154 5.904 78.5968 6.688 78.5968 7.584C78.5968 8.46933 78.4154 9.25867 78.0528 9.952C77.6901 10.6453 77.1887 11.184 76.5487 11.568C75.9194 11.952 75.2154 12.144 74.4368 12.144C73.6901 12.144 73.0288 11.9787 72.4528 11.648C71.8874 11.3067 71.4554 10.8853 71.1568 10.384V16.16H69.7008V3.232H71.1568V4.848ZM77.1088 7.584C77.1088 6.92267 76.9754 6.34667 76.7088 5.856C76.4421 5.36533 76.0794 4.992 75.6208 4.736C75.1728 4.48 74.6768 4.352 74.1328 4.352C73.5994 4.352 73.1034 4.48533 72.6448 4.752C72.1968 5.008 71.8341 5.38667 71.5568 5.888C71.2901 6.37867 71.1568 6.94933 71.1568 7.6C71.1568 8.26133 71.2901 8.84267 71.5568 9.344C71.8341 9.83467 72.1968 10.2133 72.6448 10.48C73.1034 10.736 73.5994 10.864 74.1328 10.864C74.6768 10.864 75.1728 10.736 75.6208 10.48C76.0794 10.2133 76.4421 9.83467 76.7088 9.344C76.9754 8.84267 77.1088 8.256 77.1088 7.584ZM84.3373 12.144C83.5159 12.144 82.7693 11.9573 82.0973 11.584C81.4359 11.2107 80.9133 10.6827 80.5293 10C80.1559 9.30667 79.9693 8.50667 79.9693 7.6C79.9693 6.704 80.1613 5.91467 80.5453 5.232C80.9399 4.53867 81.4733 4.01067 82.1453 3.648C82.8173 3.27467 83.5693 3.088 84.4013 3.088C85.2333 3.088 85.9853 3.27467 86.6573 3.648C87.3293 4.01067 87.8573 4.53333 88.2413 5.216C88.6359 5.89867 88.8333 6.69333 88.8333 7.6C88.8333 8.50667 88.6306 9.30667 88.2253 10C87.8306 10.6827 87.2919 11.2107 86.6093 11.584C85.9266 11.9573 85.1693 12.144 84.3373 12.144ZM84.3373 10.864C84.8599 10.864 85.3506 10.7413 85.8093 10.496C86.2679 10.2507 86.6359 9.88267 86.9133 9.392C87.2013 8.90133 87.3453 8.304 87.3453 7.6C87.3453 6.896 87.2066 6.29867 86.9293 5.808C86.6519 5.31733 86.2893 4.95467 85.8413 4.72C85.3933 4.47467 84.9079 4.352 84.3853 4.352C83.8519 4.352 83.3613 4.47467 82.9133 4.72C82.4759 4.95467 82.1239 5.31733 81.8573 5.808C81.5906 6.29867 81.4573 6.896 81.4573 7.6C81.4573 8.31467 81.5853 8.91733 81.8413 9.408C82.1079 9.89867 82.4599 10.2667 82.8973 10.512C83.3346 10.7467 83.8146 10.864 84.3373 10.864ZM92.5236 4.432V9.6C92.5236 10.0267 92.6143 10.3307 92.7956 10.512C92.977 10.6827 93.2916 10.768 93.7396 10.768H94.8116V12H93.4996C92.689 12 92.081 11.8133 91.6756 11.44C91.2703 11.0667 91.0676 10.4533 91.0676 9.6V4.432H89.9316V3.232H91.0676V1.024H92.5236V3.232H94.8116V4.432H92.5236ZM99.6798 12.144C99.0078 12.144 98.4051 12.032 97.8718 11.808C97.3384 11.5733 96.9171 11.2533 96.6078 10.848C96.2984 10.432 96.1278 9.95733 96.0958 9.424H97.5998C97.6424 9.86133 97.8451 10.2187 98.2078 10.496C98.5811 10.7733 99.0664 10.912 99.6638 10.912C100.218 10.912 100.656 10.7893 100.976 10.544C101.296 10.2987 101.456 9.98933 101.456 9.616C101.456 9.232 101.285 8.94933 100.944 8.768C100.602 8.576 100.074 8.38933 99.3598 8.208C98.7091 8.03733 98.1758 7.86667 97.7598 7.696C97.3544 7.51467 97.0024 7.25333 96.7038 6.912C96.4158 6.56 96.2718 6.10133 96.2718 5.536C96.2718 5.088 96.4051 4.67733 96.6718 4.304C96.9384 3.93067 97.3171 3.63733 97.8078 3.424C98.2984 3.2 98.8584 3.088 99.4878 3.088C100.458 3.088 101.242 3.33333 101.84 3.824C102.437 4.31467 102.757 4.98667 102.8 5.84H101.344C101.312 5.38133 101.125 5.01333 100.784 4.736C100.453 4.45867 100.005 4.32 99.4398 4.32C98.9171 4.32 98.5011 4.432 98.1918 4.656C97.8824 4.88 97.7278 5.17333 97.7278 5.536C97.7278 5.824 97.8184 6.064 97.9998 6.256C98.1918 6.43733 98.4264 6.58667 98.7038 6.704C98.9918 6.81067 99.3864 6.93333 99.8878 7.072C100.517 7.24267 101.029 7.41333 101.424 7.584C101.818 7.744 102.154 7.98933 102.432 8.32C102.72 8.65067 102.869 9.08267 102.88 9.616C102.88 10.096 102.746 10.528 102.48 10.912C102.213 11.296 101.834 11.6 101.344 11.824C100.864 12.0373 100.309 12.144 99.6798 12.144Z" fill="#212121" fill-opacity="0.7"/>
</svg>
